<svg width="173" height="52" viewBox="0 0 173 52" fill="none" xmlns="http://www.w3.org/2000/svg">
<path d="M59.9 12.1001C66.1 12.1001 69.9 14.8001 69.9 19.1001C69.9 22.1001 68.1 24.5001 65.1 25.3001C68.7 26.0001 70.9 28.7001 70.9 32.4001C70.9 37.2001 66.9 40.2001 60.3 40.2001H47V12.2001L59.9 12.1001ZM53.3 23.4001H59.5C61.9 23.4001 63.3 22.2001 63.3 20.3001C63.3 18.4001 61.8 17.3001 59.5 17.3001H53.3V23.4001ZM53.3 35.0001H59.5C62.5 35.0001 64.3 33.8001 64.3 31.6001C64.3 29.6001 62.5 28.3001 59.5 28.3001H53.3V35.0001Z" fill="#2D2E32"/>
<path d="M77.6001 40.1001V10.4001H83.8001V40.1001H77.6001Z" fill="#2D2E32"/>
<path d="M104.4 37.6001C103 39.4001 100.6 40.4001 97.6 40.4001C93 40.4001 90.2 37.6001 90.2 33.7001C90.2 29.7001 93.1 27.3001 98.4 27.2001H104.3V26.8001C104.3 24.5001 102.8 23.2001 99.8 23.2001C97.9 23.2001 95.6 23.8001 93.4 25.1001L91.5 20.9001C94.7 19.3001 97.5 18.4001 101.2 18.4001C107 18.4001 110.3 21.3001 110.3 26.1001V40.1001H104.3V37.6001H104.4V37.6001ZM104.3 32.8001V30.9001H99.5C97.1 30.9001 96 31.6001 96 33.3001C96 34.9001 97.3 36.0001 99.4 36.0001C101.9 36.0001 104 34.6001 104.3 32.8001Z" fill="#2D2E32"/>
<path d="M139.2 26.6001V40.1001H133V28.4001C133 25.7001 131.4 24.0001 128.8 24.0001C125.7 24.0001 123.9 26.4001 123.9 29.5001V40.1001H117.7V18.6001H123.9V22.4001C125.4 19.7001 128 18.4001 131.3 18.4001C136.1 18.4001 139.2 21.6001 139.2 26.6001Z" fill="#2D2E32"/>
<path d="M152.9 34.3001V40.1001H146.7V10.4001H152.9V26.7001L160.8 18.6001H167.8L159.9 26.9001L168.1 40.1001H160.8L155.6 31.3001L152.9 34.3001Z" fill="#2D2E32"/>
<path opacity="0.54" d="M6.9999 22.9C2.8999 30 4.8999 39 11.4999 43.7C12.1999 44.2 13.0999 43.9 13.4999 43.3L27.8999 18.5C28.2999 17.8 27.9999 16.9 27.2999 16.6C19.8999 13.1 11.0999 15.8 6.9999 22.9Z" fill="#2D2E32"/>
<path opacity="0.54" d="M35.0998 28C38.7998 20.7 36.2998 11.8 29.4998 7.50005C28.7998 7.10005 27.8998 7.30005 27.5998 8.10005L14.5998 33.6C14.1998 34.3 14.5998 35.2 15.2998 35.5C22.6998 38.5 31.3998 35.3 35.0998 28Z" fill="#414246"/>
</svg>
