<svg width="173" height="52" viewBox="0 0 173 52" fill="none" xmlns="http://www.w3.org/2000/svg">
<path d="M59.9 12.1001C66.1 12.1001 69.9 14.8001 69.9 19.1001C69.9 22.1001 68.1 24.5001 65.1 25.3001C68.7 26.0001 70.9 28.7001 70.9 32.4001C70.9 37.2001 66.9 40.2001 60.3 40.2001H47V12.2001L59.9 12.1001ZM53.3 23.4001H59.5C61.9 23.4001 63.3 22.2001 63.3 20.3001C63.3 18.4001 61.8 17.3001 59.5 17.3001H53.3V23.4001ZM53.3 35.0001H59.5C62.5 35.0001 64.3 33.8001 64.3 31.6001C64.3 29.6001 62.5 28.3001 59.5 28.3001H53.3V35.0001Z" fill="white"/>
<path d="M77.6 40.0999V10.3999H83.8V40.0999H77.6Z" fill="white"/>
<path d="M104.4 37.5999C103 39.3999 100.6 40.3999 97.6 40.3999C93 40.3999 90.2 37.5999 90.2 33.6999C90.2 29.6999 93.1 27.2999 98.4 27.1999H104.3V26.7999C104.3 24.4999 102.8 23.1999 99.8 23.1999C97.9 23.1999 95.6 23.7999 93.4 25.0999L91.5 20.8999C94.7 19.2999 97.5 18.3999 101.2 18.3999C107 18.3999 110.3 21.2999 110.3 26.0999V40.0999H104.3V37.5999H104.4V37.5999ZM104.3 32.7999V30.8999H99.5C97.1 30.8999 96 31.5999 96 33.2999C96 34.8999 97.3 35.9999 99.4 35.9999C101.9 35.9999 104 34.5999 104.3 32.7999Z" fill="white"/>
<path d="M139.2 26.5999V40.0999H133V28.3999C133 25.6999 131.4 23.9999 128.8 23.9999C125.7 23.9999 123.9 26.3999 123.9 29.4999V40.0999H117.7V18.5999H123.9V22.3999C125.4 19.6999 128 18.3999 131.3 18.3999C136.1 18.3999 139.2 21.5999 139.2 26.5999Z" fill="white"/>
<path d="M152.9 34.2999V40.0999H146.7V10.3999H152.9V26.6999L160.8 18.5999H167.8L159.9 26.8999L168.1 40.0999H160.8L155.6 31.2999L152.9 34.2999Z" fill="white"/>
<path opacity="0.54" d="M7.00002 22.8998C2.90002 29.9998 4.90002 38.9998 11.5 43.6998C12.2 44.1998 13.1 43.8998 13.5 43.2998L27.9 18.4998C28.3 17.7998 28 16.8998 27.3 16.5998C19.9 13.0998 11.1 15.7998 7.00002 22.8998Z" fill="white"/>
<path opacity="0.54" d="M35.1001 27.9998C38.8001 20.6998 36.3001 11.7998 29.5001 7.4998C28.8001 7.0998 27.9001 7.2998 27.6001 8.0998L14.6001 33.5998C14.2001 34.2998 14.6001 35.1998 15.3001 35.4998C22.7001 38.4998 31.4001 35.2998 35.1001 27.9998Z" fill="white"/>
</svg>
